M48
; DRILL file {KiCad (5.99.0-375-g4460af5be-dirty)+6.0.0~dev1-1} date Di 17 Dez 2019 19:10:34 CET
; FORMAT={-:-/ absolute / inch / decimal}
; #@! TF.CreationDate,2019-12-17T19:10:34+01:00
; #@! TF.GenerationSoftware,Kicad,Pcbnew,(5.99.0-375-g4460af5be-dirty)+6.0.0~dev1-1
; #@! TF.FileFunction,Plated,1,2,PTH
FMAT,2
INCH
T1C0.0157
%
G90
G05
T1
X0.9094Y-1.4724
X0.9134Y-1.6181
X0.9134Y-1.8465
X0.9173Y-1.6772
X0.9173Y-1.7638
X0.9213Y-1.3937
X0.935Y-2.065
X0.9449Y-2.1732
X0.9449Y-2.2618
X0.9449Y-2.3602
X0.9488Y-1.2441
X0.9488Y-1.3268
X0.9488Y-1.9488
X0.9567Y-1.5
X0.9764Y-1.6181
X1.0Y-1.3868
X1.0Y-1.685
X1.0295Y-1.4488
X1.0356Y-1.5136
X1.038Y-1.5866
X1.1482Y-2.036
X1.1732Y-2.1654
X1.1732Y-2.2441
X1.1772Y-1.6063
X1.1811Y-1.7441
X1.1969Y-1.7874
X1.2008Y-1.6693
X1.226Y-1.8574
X1.2398Y-2.0372
X1.2461Y-1.9782
X1.248Y-1.6378
X1.248Y-1.9213
X1.25Y-1.5138
X1.4046Y-1.6687
X1.4372Y-1.6271
X1.4488Y-1.8386
X1.4768Y-1.7792
X1.4769Y-1.7162
X1.4831Y-1.5956
X1.5039Y-1.6902
X1.5059Y-2.0748
T0
M30
