M48
; DRILL file {KiCad (5.99.0-375-g4460af5be-dirty)+6.0.0~dev1-1} date Sun 15 Dec 2019 01:20:45 PM CET
; FORMAT={-:-/ absolute / inch / decimal}
; #@! TF.CreationDate,2019-12-15T13:20:45+01:00
; #@! TF.GenerationSoftware,Kicad,Pcbnew,(5.99.0-375-g4460af5be-dirty)+6.0.0~dev1-1
; #@! TF.FileFunction,Plated,1,2,PTH
FMAT,2
INCH
T1C0.0118
T2C0.0157
T3C0.0394
T4C0.0256
T5C0.1083
%
G90
G05
T4
X1.2598Y-1.5984
X1.2598Y-2.1024
T5
X1.2732Y-1.1146
X3.5567Y-1.1154
T1
X1.2598Y-1.8071
X1.2638Y-1.9606
X1.2638Y-1.9961
X1.2707Y-1.8978
X1.2756Y-1.9291
X1.2795Y-1.8425
X1.2864Y-1.7507
X1.2913Y-1.7835
X1.2913Y-1.874
X1.3289Y-1.7423
X1.4954Y-1.922
X1.4956Y-1.7766
X1.4961Y-1.626
X1.5Y-2.0157
X1.5039Y-1.6732
X1.5288Y-1.769
X1.5426Y-1.8596
X1.5433Y-2.0354
X1.5984Y-1.874
X1.6125Y-1.9022
X1.7816Y-2.0236
X1.8288Y-1.5927
X1.8714Y-1.5961
X1.8715Y-1.7165
X1.8739Y-1.6275
X1.8893Y-1.6905
X1.9018Y-1.6433
X1.9036Y-2.0158
X1.9346Y-1.6094
X1.9479Y-1.5789
X2.0822Y-2.0428
X2.201Y-1.5995
X2.2047Y-1.6685
X2.2089Y-1.7157
X2.2205Y-1.2913
X2.2402Y-1.5551
X2.2458Y-1.815
X2.2519Y-1.7275
X2.252Y-1.6614
X2.2521Y-1.5098
X2.2941Y-1.6878
X2.3154Y-1.7243
X2.3189Y-1.253
X2.3504Y-1.2516
X2.3784Y-1.7139
X2.3819Y-2.0315
X2.3858Y-1.5315
X2.437Y-1.622
X2.4409Y-1.6693
X2.4409Y-1.5157
X2.4531Y-1.2795
X2.4567Y-2.0276
X2.4749Y-1.421
X2.4846Y-1.2795
X2.5564Y-1.7776
X2.5709Y-1.2756
X2.5719Y-1.7492
X2.5771Y-1.6047
X2.6059Y-1.7398
X2.6102Y-1.7008
X2.6142Y-1.9646
X2.626Y-1.6732
X2.6614Y-1.7047
X2.6654Y-1.248
X2.6969Y-1.2877
X2.7303Y-2.0492
X2.7323Y-1.2592
X2.7441Y-1.2892
X2.7835Y-1.9803
X2.8701Y-1.7608
X2.8902Y-1.8396
X2.8937Y-1.2638
X2.9551Y-1.5633
X2.9803Y-1.6061
X3.003Y-1.9827
X3.005Y-2.0142
X3.0481Y-1.2689
X3.0591Y-1.4567
X3.0709Y-1.6929
X3.1041Y-1.2172
X3.1654Y-1.6772
X3.2048Y-1.5712
T2
X1.3272Y-2.0276
X1.3688Y-1.7357
X1.4173Y-1.2835
X1.4961Y-1.252
X1.6535Y-2.1024
X1.7338Y-1.9843
X1.8386Y-1.2165
X1.8588Y-2.04
X1.874Y-1.7992
X1.9732Y-1.6503
X1.9921Y-1.2795
X1.9941Y-1.7638
X2.0118Y-2.1142
X2.0236Y-1.3504
X2.0315Y-1.8031
X2.0354Y-1.4409
X2.0983Y-1.6611
X2.1433Y-1.8071
X2.1457Y-1.3976
X2.4551Y-1.7933
X2.4726Y-1.7442
X2.6102Y-1.3701
X2.6693Y-2.122
X2.6844Y-1.8564
X2.7408Y-1.4094
X2.8386Y-1.6063
X2.8425Y-1.9094
X2.8461Y-1.6729
X2.9882Y-1.4134
X3.1451Y-1.4337
T3
X2.7205Y-1.5
X2.8205Y-1.5
X1.4654Y-1.065
X1.4654Y-1.165
X1.5654Y-1.065
X1.5654Y-1.165
X1.6654Y-1.065
X1.6654Y-1.165
X1.7654Y-1.065
X1.7654Y-1.165
X1.8654Y-1.065
X1.8654Y-1.165
X1.9654Y-1.065
X1.9654Y-1.165
X2.0654Y-1.065
X2.0654Y-1.165
X2.1654Y-1.065
X2.1654Y-1.165
X2.2654Y-1.065
X2.2654Y-1.165
X2.3654Y-1.065
X2.3654Y-1.165
X2.4654Y-1.065
X2.4654Y-1.165
X2.5654Y-1.065
X2.5654Y-1.165
X2.6654Y-1.065
X2.6654Y-1.165
X2.7654Y-1.065
X2.7654Y-1.165
X2.8654Y-1.065
X2.8654Y-1.165
X2.9654Y-1.065
X2.9654Y-1.165
X3.0654Y-1.065
X3.0654Y-1.165
X3.1654Y-1.065
X3.1654Y-1.165
X3.2654Y-1.065
X3.2654Y-1.165
X3.3654Y-1.065
X3.3654Y-1.165
X3.0973Y-1.8985
X3.1547Y-1.8166
X3.2121Y-1.7347
X3.2694Y-1.6528
X3.3268Y-1.5709
X3.3841Y-1.489
X3.4415Y-1.407
X1.6913Y-1.3189
X1.7913Y-1.3189
X2.185Y-2.0748
X2.285Y-2.0748
T0
M30
